<?xml version="1.0" encoding="utf-8"?><svg viewBox="0 0 92 60.84" xmlns="http://www.w3.org/2000/svg" xmlns:xlink="http://www.w3.org/1999/xlink"><style>:root>svg{display:none}:root>svg:target{display:block}</style><svg fill="none" viewBox="0 0 24 23" id="cart" xmlns="http://www.w3.org/2000/svg"><path d="M9 22a1 1 0 100-2 1 1 0 000 2zM20 22a1 1 0 100-2 1 1 0 000 2zM1 1h4l2.68 13.39a2 2 0 002 1.61h9.72a2 2 0 002-1.61L23 6H6" stroke="#fff" stroke-width="2" stroke-linecap="round" stroke-linejoin="round"/></svg><svg viewBox="0 0 60.963 60.842" id="close" xmlns="http://www.w3.org/2000/svg"><path d="M59.595 52.861L37.094 30.359 59.473 7.98a4.676 4.676 0 00-6.611-6.611L30.483 23.748 8.105 1.369A4.676 4.676 0 001.494 7.98l22.378 22.379L1.369 52.861a4.674 4.674 0 003.306 7.98 4.66 4.66 0 003.306-1.369L30.483 36.97l22.501 22.502c.913.913 2.109 1.369 3.306 1.369s2.393-.456 3.306-1.369a4.677 4.677 0 00-.001-6.611z" fill="#231f20"/></svg><svg fill="#5f6672" viewBox="0 0 64 58.67" id="del" xmlns="http://www.w3.org/2000/svg"><defs><style/></defs><g id="cLayer_2" data-name="Layer 2"><g id="cLayer_1-2" data-name="Layer 1"><path class="ccls-1" d="M61.33 5.33H48V2.67A2.66 2.66 0 0045.33 0H18.67A2.66 2.66 0 0016 2.67v2.66H2.67a2.67 2.67 0 000 5.34H8v40a8 8 0 008 8h32a8 8 0 008-8v-40h5.33a2.67 2.67 0 100-5.34zM50.67 50.67A2.67 2.67 0 0148 53.33H16a2.67 2.67 0 01-2.67-2.66v-40h37.34z"/><path class="ccls-1" d="M24 45.33a2.67 2.67 0 002.67-2.66V21.33a2.67 2.67 0 00-5.34 0v21.34A2.67 2.67 0 0024 45.33zM40 45.33a2.67 2.67 0 002.67-2.66V21.33a2.67 2.67 0 00-5.34 0v21.34A2.67 2.67 0 0040 45.33z"/></g></g></svg><svg fill="none" viewBox="0 0 13 22" id="facebook" xmlns="http://www.w3.org/2000/svg"><path d="M13 3.6l-2.297.002c-1.802 0-2.15.76-2.15 1.877v2.462h4.295l-.001 3.856H8.553v9.896h-4.48v-9.896H.325V7.941h3.746V5.098C4.072 1.798 6.34 0 9.652 0L13 .005V3.6z" fill="#545761"/></svg><svg fill="none" viewBox="0 0 21 20" id="linkedin" xmlns="http://www.w3.org/2000/svg"><g clip-path="url(#eclip0_1:216)" fill="#545761"><path d="M20.995 20H21v-7.336c0-3.588-.81-6.352-5.216-6.352-2.117 0-3.538 1.106-4.118 2.156h-.062V6.647H7.428v13.352h4.349v-6.611c0-1.741.346-3.425 2.61-3.425 2.23 0 2.264 1.987 2.264 3.536V20h4.344zM.347 6.647H4.7V20H.347V6.647zM2.522 0C1.13 0 0 1.076 0 2.402c0 1.325 1.13 2.424 2.522 2.424s2.522-1.098 2.522-2.424C5.042 1.076 3.912 0 2.522 0z"/></g><defs><clipPath id="eclip0_1:216"><path fill="#fff" d="M0 0h21v20H0z"/></clipPath></defs></svg><svg fill="none" viewBox="0 0 92 34" id="logo" xmlns="http://www.w3.org/2000/svg"><path d="M15.388 5.552H5.308v5.976H15.1v4.752H5.308V26H.34V.8h15.048v4.752zm8.048 5.544c.432-1.152 1.14-2.016 2.124-2.592 1.008-.576 2.124-.864 3.348-.864v5.184c-1.416-.168-2.688.12-3.816.864-1.104.744-1.656 1.98-1.656 3.708V26h-4.644V8h4.644v3.096zM43.504 8h4.644v18h-4.644v-2.016c-1.128 1.68-2.916 2.52-5.364 2.52-1.968 0-3.6-.66-4.896-1.98-1.272-1.32-1.908-3.144-1.908-5.472V8h4.644v10.476c0 1.2.324 2.124.972 2.772.648.624 1.512.936 2.592.936 1.2 0 2.16-.372 2.88-1.116.72-.744 1.08-1.86 1.08-3.348V8zm28.088 4.464h-4.068v7.488c0 .624.156 1.08.468 1.368.312.288.768.456 1.368.504.6.024 1.344.012 2.232-.036V26c-3.192.36-5.448.06-6.768-.9-1.296-.96-1.944-2.676-1.944-5.148v-7.488h-3.132V8h3.132V4.364l4.644-1.404V8h4.068v4.464zM86.989 8h4.968l-6.552 18c-.936 2.592-2.184 4.464-3.744 5.616-1.536 1.176-3.456 1.704-5.76 1.584v-4.32c1.248.024 2.232-.24 2.952-.792.744-.552 1.332-1.44 1.764-2.664L73.237 8h5.076l4.68 12.096L86.989 8z" fill="#233506"/><path d="M54.705 5.84c-.768 0-1.44-.276-2.016-.828-.552-.576-.828-1.248-.828-2.016s.276-1.44.828-2.016c.576-.576 1.248-.864 2.016-.864.792 0 1.464.288 2.016.864.576.576.864 1.248.864 2.016s-.288 1.44-.864 2.016a2.744 2.744 0 01-2.016.828zM52.401 26V8h4.644v18h-4.644z" fill="#FF800B"/></svg><svg fill="none" viewBox="0 0 22 22" id="pay" xmlns="http://www.w3.org/2000/svg"><g clip-path="url(#gclip0_1:109)" fill="#fff"><path d="M21.313 13.75a.688.688 0 00-.688.687v4.813H1.375V11h7.563a.688.688 0 000-1.375H1.375v-2.75h7.563a.688.688 0 000-1.375H1.375C.616 5.5 0 6.116 0 6.875V19.25c0 .759.616 1.375 1.375 1.375h19.25c.759 0 1.375-.616 1.375-1.375v-4.813a.688.688 0 00-.688-.687z"/><path d="M6.188 13.75h-2.75a.688.688 0 000 1.374h2.75a.688.688 0 000-1.375zM21.584 3.493L16.77 1.43a.702.702 0 00-.543 0l-4.813 2.063a.69.69 0 00-.415.632v2.75c0 3.783 1.399 5.994 5.158 8.16a.69.69 0 00.685 0C20.602 12.874 22 10.662 22 6.874v-2.75a.688.688 0 00-.416-.632zm-.959 3.382c0 3.175-1.05 4.923-4.125 6.765-3.074-1.847-4.125-3.594-4.125-6.765V4.58L16.5 2.81l4.125 1.768v2.296z"/><path d="M18.993 5.65a.692.692 0 00-.967.107L15.865 8.46l-.856-1.279a.688.688 0 00-1.144.762l1.376 2.063a.693.693 0 00.543.306h.028a.688.688 0 00.538-.258l2.75-3.438a.688.688 0 00-.107-.966z"/></g><defs><clipPath id="gclip0_1:109"><path fill="#fff" d="M0 0h22v22H0z"/></clipPath></defs></svg><svg fill="none" viewBox="0 0 22 22" id="ship" xmlns="http://www.w3.org/2000/svg"><path d="M20.46 9.942l-.57-2.28a.344.344 0 00.273-.336v-.367c0-.798-.65-1.447-1.447-1.447h-2.595v-.758a.713.713 0 00-.712-.712H2.182a.713.713 0 00-.712.712V11a.344.344 0 10.689 0V4.754c0-.013.01-.023.023-.023h13.227c.013 0 .023.01.023.023V11a.345.345 0 00.69 0v-.39h4.064c.5 0 .925.329 1.07.78h-1.07a.344.344 0 00-.345.345v.735c0 .595.484 1.08 1.08 1.08h.39v1.515h-.9a2.185 2.185 0 00-2.062-1.47c-.954 0-1.766.616-2.062 1.47h-.166V12.47a.344.344 0 00-.689 0v2.595H8.285a2.185 2.185 0 00-2.062-1.47c-.953 0-1.766.616-2.061 1.47h-1.98a.023.023 0 01-.023-.023v-.758H3.65a.344.344 0 000-.689H.344a.344.344 0 000 .69H1.47v.757c0 .393.32.712.712.712h1.86v.023c0 1.203.978 2.182 2.181 2.182a2.184 2.184 0 002.182-2.182v-.023h7.763l-.001.023c0 1.203.979 2.182 2.182 2.182a2.184 2.184 0 002.181-2.182v-.023h1.125c.19 0 .345-.154.345-.345v-3.674c0-.907-.67-1.66-1.54-1.793zM16.12 6.2h2.595c.418 0 .758.34.758.758v.023H16.12V6.2zm0 3.72v-2.25h3.061l.563 2.25H16.12zM6.223 17.27c-.823 0-1.492-.67-1.492-1.493 0-.823.67-1.493 1.492-1.493.823 0 1.493.67 1.493 1.493 0 .823-.67 1.493-1.493 1.493zm12.126 0c-.823 0-1.493-.67-1.493-1.493 0-.823.67-1.493 1.493-1.493.823 0 1.492.67 1.492 1.493 0 .823-.67 1.493-1.492 1.493zm2.962-4.41h-.39a.39.39 0 01-.39-.39v-.39h.78v.78z" fill="#fff"/><path d="M6.224 15.065a.713.713 0 10.001 1.425.713.713 0 00-.001-1.425zM18.349 15.065a.713.713 0 10.001 1.426.713.713 0 00-.001-1.426zM14.307 13.595H9.163a.344.344 0 100 .689h5.144a.345.345 0 000-.69zM5.489 12.125h-4.41a.344.344 0 000 .689h4.41a.345.345 0 000-.689zM11.978 7.45a.345.345 0 00-.487 0l-3.063 3.063-1.594-1.594a.344.344 0 10-.487.487l1.837 1.838a.343.343 0 00.487 0l3.307-3.307a.344.344 0 000-.487z" fill="#fff"/></svg><svg fill="none" viewBox="0 0 22 22" id="smartphone" xmlns="http://www.w3.org/2000/svg"><g clip-path="url(#iclip0_1:128)" fill="#fff"><path d="M5.866 16.133H8.8a.367.367 0 000-.733H5.866a.367.367 0 000 .733z"/><path d="M.667 17.606c.117.166.253.36.411.618.065.104.133.208.202.314.3.367.492.81.554 1.28V20.9a1.1 1.1 0 001.1 1.1h4.4a1.1 1.1 0 001.1-1.1v-1.467a.379.379 0 01.197-.323 5.628 5.628 0 001.837-1.51h.166c.131 0 .263-.018.39-.053l1.14 1.723a2.499 2.499 0 002.448.997c.18-.03.362.04.474.183l.699 1.032a1.177 1.177 0 001.634.312l4.061-2.815c.258-.174.436-.443.495-.748a1.151 1.151 0 00-.17-.863 2.097 2.097 0 01-.146-1.19l.014-.282c.01-.317-.008-.63-.026-.932a36.1 36.1 0 01-.02-.34 8.155 8.155 0 00-1.382-4.21l-2.148-3.172a1.5 1.5 0 00-2.006-.486 1.453 1.453 0 00-.601.714 1.459 1.459 0 00-2.237.623 1.469 1.469 0 00-1.153-.267v-6.36C12.1.657 11.444 0 10.634 0h-6.6c-.81 0-1.467.657-1.467 1.467v4.822a1.478 1.478 0 00-.328-.056h-.065a1.092 1.092 0 00-1.08.968C1.034 7.707.937 8.208.801 8.7a6.135 6.135 0 01-.298.783 4.018 4.018 0 00-.426 1.532c-.01.315.002.65.014.973.012.301.024.612.016.898-.005.193-.021.491-.04.828-.04.733-.089 1.645-.056 2.08.007.662.238 1.3.656 1.813zm12.322-8.752l.411.606a.367.367 0 00.094.092l.02.014a.367.367 0 00.115.046h.018a.354.354 0 00.057.007.355.355 0 00.048-.007.357.357 0 00.159-.056.367.367 0 00.098-.509.733.733 0 111.214-.823l.41.613a.367.367 0 00.607-.411.733.733 0 01.23-1.04.778.778 0 011.02.268l2.148 3.173a7.424 7.424 0 011.256 3.831l.02.352c.017.298.034.58.024.863-.002.088-.008.177-.013.267a2.706 2.706 0 00.262 1.623.44.44 0 01-.122.615l-4.06 2.813a.442.442 0 01-.613-.118l-.705-1.041a1.216 1.216 0 00-1.17-.489 1.753 1.753 0 01-1.744-.677l-1.29-1.95v-.005c0-.002-.003-.003-.004-.006l-.978-1.48c-.269-.397-.299-1.075.085-1.336l.408-.312 2.463 3.617a.367.367 0 10.606-.413l-2.644-3.88a.346.346 0 00-.04-.083.384.384 0 00-.04-.037l-4.246-6.23a.734.734 0 011.216-.82l3.066 4.462a.367.367 0 10.604-.415l-.2-.29-.004-.012a.733.733 0 111.214-.822zM9.167 5.882l-.25-.364a1.467 1.467 0 10-2.429 1.645l.303.445a1.83 1.83 0 112.376-1.741v.015zm0-5.149V1.1a.367.367 0 01-.367.367H5.867A.367.367 0 015.5 1.1V.733h3.667zM3.3 1.467c0-.405.329-.734.734-.734h.733V1.1a1.1 1.1 0 001.1 1.1H8.8a1.1 1.1 0 001.1-1.1V.733h.734c.405 0 .733.329.733.734V8.21c-.128.124-.232.27-.307.43L9.75 6.732a2.567 2.567 0 10-2.415 1.702h.018l3.226 4.737-.421.323c-.747.506-.739 1.64-.266 2.34l.683 1.034h-6.54a.733.733 0 01-.734-.734v-4.35c.432-.939.68-1.951.732-2.983h.002c0-1.119-.346-1.75-.734-2.105V1.467zM.8 13.752c.018-.344.035-.65.04-.848.008-.31-.004-.632-.016-.944-.012-.325-.024-.632-.014-.922.036-.44.16-.87.364-1.263.13-.284.242-.576.333-.875.145-.529.25-1.067.314-1.612a.359.359 0 01.353-.321h.06a.888.888 0 01.43.149.36.36 0 00.102.077c.268.227.534.683.534 1.607a.123.123 0 00.005.052c.063 1.08-.718 2.828-.902 2.92a.364.364 0 00.164.691v3.67c0 .81.657 1.467 1.467 1.467h5.45c-.37.338-.777.63-1.215.872a1.112 1.112 0 00-.569.961V20.9a.367.367 0 01-.366.367h-4.4a.367.367 0 01-.367-.367v-1.082a3.118 3.118 0 00-.674-1.683c-.065-.1-.13-.198-.19-.296-.168-.272-.312-.476-.435-.654a2.236 2.236 0 01-.526-1.445c-.028-.39.02-1.276.058-1.988z"/><path d="M3.666 20.533h.367a.367.367 0 000-.733h-.367a.367.367 0 000 .733zM5.5 20.533h1.1a.367.367 0 100-.733H5.5a.367.367 0 100 .733zM17.237 20.072a.365.365 0 00.206-.063l.303-.206a.367.367 0 10-.41-.607l-.304.205a.366.366 0 00.205.67zM18.755 19.044a.366.366 0 00.205-.063l1.306-.885a.367.367 0 10-.41-.606l-1.307.885a.367.367 0 00.206.67z"/></g><defs><clipPath id="iclip0_1:128"><path fill="#fff" d="M0 0h22v22H0z"/></clipPath></defs></svg><svg fill="none" viewBox="0 0 26 26" id="twitter" xmlns="http://www.w3.org/2000/svg"><circle cx="13" cy="13" r="13" fill="#00AFD7"/><path d="M18.786 9.64a.229.229 0 00-.288-.054c-.1.048-.202.088-.307.119.164-.225.288-.481.365-.755.034-.137-.042-.279-.17-.315a.227.227 0 00-.2.038 4.848 4.848 0 01-1.156.485c-.828-.84-2.09-.944-3.029-.251-.723.525-1.121 1.432-1.038 2.365-1.567-.143-3.01-.977-3.984-2.304a.241.241 0 00-.204-.096.239.239 0 00-.192.126c-.33.58-.426 1.28-.265 1.938.082.338.224.656.417.937a1.268 1.268 0 01-.244-.168.23.23 0 00-.338.038.27.27 0 00-.053.162c.014.955.502 1.828 1.28 2.29a1.669 1.669 0 01-.31-.07c-.127-.042-.26.036-.299.172a.276.276 0 00.01.18c.338.812 1.013 1.405 1.82 1.6a3.993 3.993 0 01-2.533.56.237.237 0 00-.257.176.267.267 0 00.111.304 6.835 6.835 0 003.55 1.083 5.806 5.806 0 003.37-1.106c1.904-1.357 3.09-3.792 2.926-5.972.407-.323.76-.718 1.044-1.168a.273.273 0 00-.026-.314z" fill="#fff"/></svg><svg fill="none" viewBox="0 0 21 14" id="youtube" xmlns="http://www.w3.org/2000/svg"><path d="M20.148 1.299C19.605.353 19.016.179 17.816.113 16.616.033 13.601 0 10.99 0 8.37 0 5.355.033 4.157.111 2.959.18 2.368.351 1.82 1.3 1.26 2.243.973 3.87.973 6.734v.01c0 2.852.288 4.491.847 5.426.548.946 1.138 1.117 2.336 1.197 1.199.068 4.215.109 6.833.109 2.612 0 5.627-.04 6.828-.108 1.2-.08 1.79-.251 2.333-1.197.564-.935.85-2.574.85-5.426V6.74v-.004c0-2.865-.286-4.492-.852-5.436zM8.483 10.413v-7.35l6.258 3.675-6.258 3.675z" fill="#545761"/></svg></svg>